<?xml version="1.0" encoding="UTF-8" standalone="no"?><!DOCTYPE svg PUBLIC "-//W3C//DTD SVG 1.1//EN" "http://www.w3.org/Graphics/SVG/1.1/DTD/svg11.dtd"><svg width="100%" height="100%" viewBox="0 0 2134 2134" version="1.1" xmlns="http://www.w3.org/2000/svg" xmlns:xlink="http://www.w3.org/1999/xlink" xml:space="preserve" xmlns:serif="http://www.serif.com/" style="fill-rule:evenodd;clip-rule:evenodd;stroke-linejoin:round;stroke-miterlimit:2;"><g><g><path d="M2046.113,1512.242c0,-6.963 11.787,-41.792 16.5,-34.825c-2.354,11.608 -9.429,20.896 -16.5,34.825Z" style="fill-rule:nonzero;"/><path d="M1430.867,91.331c0,2.322 -2.358,0 -7.071,0c-2.358,0 2.354,2.322 4.712,4.643c-21.217,-2.322 -47.146,-16.252 -75.433,-20.895c7.075,-4.644 44.788,6.965 77.792,16.252Z" style="fill-rule:nonzero;"/><path d="M1998.967,648.55c4.717,0 -7.071,-16.254 -9.429,-16.254c-4.713,-13.929 9.429,4.646 16.504,18.575c-2.358,0 -4.717,9.287 -11.787,-9.288c0,0 2.358,2.325 4.713,6.967Z" style="fill-rule:nonzero;"/><path d="M1463.867,154.018c4.717,0 42.433,18.574 63.646,25.539c-7.071,2.322 -23.571,-4.643 -42.429,-11.609c4.712,0 14.142,2.322 23.571,6.965c-4.712,-4.644 -40.071,-16.252 -44.788,-20.896Zm-351.233,-71.974c7.071,-2.322 89.575,9.287 127.292,11.609c2.358,-2.322 -4.712,-2.322 -14.142,-4.644c11.788,-2.322 35.358,4.644 51.858,6.965c-49.5,2.322 -103.721,-11.609 -150.862,-6.965c-16.504,0 -4.717,-4.643 -14.146,-6.965Zm-68.362,0c42.433,0 75.433,0 14.146,4.643c-7.071,-2.322 -16.5,-2.322 -14.146,-4.643Zm667.108,192.705c4.717,0 23.575,20.896 33.004,27.861c-2.358,2.322 -21.217,-16.252 -30.646,-23.217c2.358,2.322 0,0 -2.358,-4.643Zm-47.142,-30.183c-18.858,-16.252 -25.933,-16.252 -28.287,-25.539c16.5,9.287 28.287,18.574 28.287,25.539Zm-304.092,-146.27c2.358,-2.322 7.075,2.322 18.858,4.643c-14.142,-2.322 -11.783,0 -7.071,4.644c-16.5,-2.322 -21.217,-4.644 -16.5,-9.287c9.429,4.643 11.787,2.322 4.713,0Zm-669.463,27.861c0,-2.322 9.429,-6.965 16.5,-9.287c-7.071,4.643 -4.717,6.965 7.071,2.322c0,2.322 -14.142,6.965 -23.571,11.609c4.712,-2.322 9.429,-9.287 0,-4.644Zm716.608,-51.078c-7.071,2.322 -33,-11.609 -58.929,-16.252c-14.146,-4.643 56.575,11.609 58.929,16.252Zm-1390.791,1146.947c14.144,58.042 4.715,55.721 0,0Zm2.357,-348.263c2.357,-9.288 4.715,-34.829 7.072,-32.504c-7.072,55.721 -18.858,81.258 -21.215,123.05c7.072,-37.146 -2.357,20.896 -4.715,34.829c2.357,18.571 2.357,-11.612 7.072,-6.967c4.715,6.967 -9.429,104.479 -4.715,51.079c-4.715,48.754 0,102.154 9.429,116.088c-11.786,74.296 47.145,241.463 58.932,276.288c2.357,2.321 0,-11.608 4.715,-2.321c4.715,30.183 25.93,51.079 33.002,83.583c7.072,9.287 35.359,60.363 40.074,71.975c9.429,18.571 14.144,16.25 23.573,34.825c28.287,53.4 73.075,104.479 115.506,153.233c136.721,157.879 346.521,287.9 579.888,334.333c233.371,48.758 478.529,13.929 669.467,-76.617c11.788,-6.967 9.429,-9.287 23.575,-13.929c66.004,-20.896 146.15,-88.229 190.937,-113.767c21.217,-23.217 77.792,-62.688 84.863,-85.904c40.075,-32.504 80.146,-85.908 101.362,-120.733c11.788,-18.575 21.217,-18.575 25.929,-30.183c-2.354,0 37.717,-48.754 49.504,-76.617c-4.717,0 -11.788,13.929 -11.788,0c84.862,-160.2 132.008,-376.125 106.079,-524.717c4.713,183.421 -42.433,387.733 -132.008,517.75c-40.075,83.583 -122.579,174.133 -198.013,239.142c-11.783,11.608 -23.571,25.537 -37.717,34.825c-44.787,37.15 -94.287,67.333 -146.15,95.192c-122.579,67.333 -259.3,125.375 -419.596,127.7c275.804,-23.221 523.317,-160.204 660.037,-327.371c-103.721,99.837 -148.508,139.308 -264.012,197.35c-9.429,16.254 -87.221,48.758 -139.079,62.688c30.642,-13.929 94.292,-37.146 115.504,-55.721c-172.079,81.263 -363.021,127.696 -542.171,102.158c68.358,0 165.008,2.321 256.942,-13.933c14.146,-4.642 21.217,-9.288 37.717,-11.608c179.154,-39.471 351.233,-125.375 473.812,-246.104c-70.717,62.688 -176.796,136.983 -245.158,160.2c63.646,-34.825 179.154,-102.158 216.871,-153.237c-75.433,74.296 -216.871,148.596 -306.446,181.1c-14.142,2.321 9.429,-9.287 -14.142,0c-28.288,6.963 -16.504,6.963 -23.575,11.608c-108.433,30.183 -233.371,55.721 -337.092,46.433c-18.858,-2.321 -25.929,-6.967 -42.429,-6.967c-18.858,-2.321 -35.358,-2.321 -56.575,-2.321c-82.504,-9.288 -172.079,-41.792 -238.083,-69.65c-35.358,-16.254 -70.721,-27.862 -106.079,-48.758c-28.287,-16.254 -51.858,-34.825 -75.433,-53.4c-89.575,-65.008 -165.008,-130.017 -235.726,-222.887c-127.293,-174.133 -193.297,-392.379 -183.868,-608.3c9.429,-215.925 96.648,-427.204 235.728,-582.758c-7.072,6.962 9.429,-16.254 23.573,-30.185c0,4.643 -2.357,11.61 14.144,-4.644c14.143,-16.252 -4.715,-4.643 2.357,-13.93c146.151,-157.879 400.738,-285.575 662.393,-290.219c9.429,-6.965 25.933,-16.252 44.792,-11.609c0,2.322 -11.787,2.322 -11.787,2.322c25.929,-2.322 49.5,-2.322 61.287,2.322c2.358,-2.322 -9.429,-4.644 0,-4.644c16.5,4.644 21.217,0 30.646,4.644c-7.071,0 -14.146,0 -18.858,2.322c58.933,0 96.65,13.93 155.579,18.574c-30.646,-6.965 -37.717,-6.965 -61.287,-13.931c25.929,4.644 37.717,9.287 49.5,6.965c-4.713,0 -2.354,-6.965 2.358,-4.643c47.146,11.609 51.862,16.252 101.362,32.504c4.717,-4.643 -21.212,-6.965 -28.287,-13.93c47.146,16.252 89.579,27.861 117.867,46.435c-9.429,-6.965 -37.717,-16.252 -58.933,-25.539c-2.358,2.322 7.071,4.644 9.429,9.287c-23.571,-11.609 -56.575,-23.218 -89.575,-27.861c28.288,6.965 47.146,16.253 58.929,20.896c-25.929,-4.643 -58.929,-20.896 -96.646,-27.861c61.287,18.574 176.796,60.365 247.512,97.513c-25.929,-16.252 -56.575,-27.861 -73.075,-37.148c14.142,2.322 30.646,11.609 30.646,6.965c16.5,6.965 37.712,23.217 49.5,25.539c-21.213,-13.93 -63.646,-34.826 -77.787,-41.792c176.796,78.94 334.733,211.28 436.096,380.768c9.429,16.25 23.571,53.4 35.358,58.042c-2.358,-11.608 -11.788,-18.571 -21.217,-37.146c4.717,0 4.717,-6.967 0,-13.929c-9.429,-11.613 0,9.283 -9.429,-2.325c-42.429,-76.617 -94.292,-143.947 -174.438,-218.243c44.788,41.792 11.788,11.609 2.358,-2.322c61.287,53.4 132.004,143.948 162.65,190.382c-4.713,-6.963 -7.071,-11.608 -4.713,-11.608c56.575,95.192 91.933,181.1 127.292,304.15c2.358,2.325 0,-9.288 4.713,-2.321c23.575,97.513 30.646,178.775 28.287,253.071c18.858,-125.375 -23.571,-320.4 -99.004,-473.638c-9.429,-18.575 -9.429,-4.642 -18.858,-25.538c0,-6.967 -7.071,-20.896 -11.787,-30.183c-94.292,-153.236 -209.796,-262.359 -346.517,-348.264c9.429,4.644 28.288,18.574 28.288,16.252c-254.588,-164.845 -549.246,-188.062 -792.046,-136.984c-16.5,6.965 -23.571,13.931 -42.429,23.218c35.358,-11.609 56.571,-13.931 89.575,-20.896c7.071,-6.965 -30.646,2.322 -14.146,-4.644c2.358,2.322 33.004,-4.643 40.075,-2.322c0,2.322 -9.429,4.643 -11.788,6.965c77.792,-16.253 157.938,-18.574 226.3,-13.931c-40.075,2.322 -113.15,-4.643 -136.721,6.965c23.571,-2.322 56.575,-4.643 77.788,-2.322c-28.288,0 -80.146,2.322 -103.717,4.643c-2.358,-2.322 37.713,-6.965 11.783,-6.965c-11.783,2.322 -30.642,2.322 -37.717,9.287c-202.725,18.574 -400.733,123.053 -539.815,246.106c-28.287,23.217 -61.289,48.757 -82.505,74.296c-51.86,58.043 -84.862,116.089 -122.578,167.168c23.573,-48.758 75.433,-123.054 136.722,-185.742c61.289,-62.687 127.292,-116.087 162.65,-143.949c0,9.287 56.575,-34.826 77.792,-48.757c-14.146,11.609 9.429,-4.643 14.142,-2.322c75.433,-44.113 136.725,-60.365 205.083,-85.905c-16.5,4.644 -30.642,9.287 -33,6.965c16.5,-4.643 25.929,-9.287 23.571,-11.609c-66.004,18.574 -169.721,62.688 -252.225,111.444c148.508,-99.835 337.087,-160.201 523.313,-162.523c186.225,-4.643 367.737,41.792 511.529,116.088c96.65,41.791 188.583,118.409 261.658,192.705c21.213,18.574 4.713,-4.644 35.358,27.861c-9.429,-4.643 -16.5,-9.287 -4.717,4.644c18.858,20.896 -4.713,-16.252 25.933,20.896c-2.358,0 -11.788,-11.609 -11.788,-6.965c82.504,71.976 146.15,201.993 183.867,287.897c-9.429,-34.825 -33,-83.583 -51.858,-118.408c56.575,102.158 75.433,162.521 99.004,253.071c9.429,6.967 -4.712,-32.504 4.717,-13.929c2.354,13.929 4.713,58.042 14.142,65.008c-7.071,-44.112 -18.858,-97.517 -28.287,-106.8c7.071,4.642 -11.787,-53.404 -23.571,-67.333c-4.717,-37.146 -37.717,-102.158 -66.004,-150.913c-101.362,-195.028 -282.875,-355.229 -485.6,-443.455c0,-4.644 -11.788,-9.287 -16.5,-13.93c-200.371,-83.583 -440.812,-106.801 -671.825,-53.401c-233.371,55.722 -452.595,188.062 -608.176,378.446c7.072,-23.217 66.004,-67.331 68.361,-85.905c-68.361,71.974 -141.437,167.166 -190.939,269.325c-51.86,102.154 -80.147,206.633 -91.934,283.254Z" style="fill-rule:nonzero;"/></g><g><path d="M1710.929,1312.467c-6.621,-3.042 -14.188,-3.438 -21.1,-1.113c-6.913,2.325 -12.629,7.188 -15.938,13.562c-3.304,6.375 -3.942,13.758 -1.775,20.583c2.171,6.825 6.967,12.554 13.388,15.983c345.796,180.283 -110.729,362.492 -563.708,360.817c-404.158,0 -685.771,-122.337 -685.771,-232.133c-0,-38.679 33.467,-71.558 61.592,-92.371c5.833,-4.446 9.642,-10.958 10.596,-18.125c0.958,-7.171 -1.013,-14.417 -5.483,-20.175c-4.471,-5.758 -11.083,-9.562 -18.404,-10.592c-7.321,-1.029 -14.763,0.804 -20.713,5.1c-54.842,40.579 -83.868,87.671 -83.868,136.162c0.028,160.987 325.968,287.113 742.051,287.113c416.079,0 742.021,-126.125 742.021,-287.113c0,-66.667 -52.875,-128.108 -152.887,-177.7Z" style="fill-rule:nonzero;"/><rect x="362.5" y="1330.425" width="1521.575" height="465.346" style="fill:none;"/><path d="M362.581,1051.613c2.999,142.146 237.748,303.317 386.506,328.171c45.408,55.787 98.237,117.979 175.546,128.321c154.129,23.558 310.938,23.558 465.067,0c33.204,-4.829 64.483,-18.55 90.529,-39.708c205.933,-169.971 247.142,-458.492 244.771,-670.908c-1.571,-107.725 -264.246,-143.575 -377.421,-154.004c-7.546,-0.696 -15.058,1.633 -20.883,6.475c-5.825,4.842 -9.492,11.804 -10.188,19.35c-0.696,7.546 1.629,15.058 6.471,20.892c4.842,5.825 11.8,9.492 19.342,10.188c230.179,21.171 325.708,74.275 325.708,98.042c0,36.05 -180.317,106.296 -510.904,106.296c-330.533,0 -510.85,-70.246 -510.85,-106.296c0,-22.796 91.446,-74.558 311.771,-96.696c7.538,-0.758 14.462,-4.483 19.254,-10.346c4.796,-5.867 7.063,-13.396 6.304,-20.933c-0.754,-7.542 -4.479,-14.471 -10.342,-19.267c-5.863,-4.792 -13.392,-7.058 -20.929,-6.3c-109.033,10.967 -362.346,47.792 -363.117,153.083c-0.454,41.679 0.929,83.363 4.142,124.921c-90.9,-8.283 -234.775,10.458 -230.778,128.721l0.001,0Zm794.573,-89.754c199.563,0 410.15,-27.254 509.504,-85.588c-8.512,187.683 -57.804,412.042 -223.067,548.304c-64.858,59.704 -507.879,59.987 -573.163,-0.258c-165.008,-136.004 -214.242,-360.304 -222.754,-548.017c99.383,58.304 309.913,85.558 509.479,85.558Zm-721.092,46.333c26.442,-24.137 86.729,-33.938 163.267,-27.508c12.138,114.767 46.733,226.021 101.808,327.429c-124.458,-43.621 -340.813,-203.908 -265.075,-299.921Z" style="fill-rule:nonzero;"/><rect x="371.068" y="620.225" width="1370.787" height="920.408" style="fill:none;"/><path d="M1045.55,786.975c6.092,4.504 13.721,6.408 21.217,5.296c7.492,-1.117 14.246,-5.158 18.763,-11.238c32.042,-43.279 72.508,-143.263 -3.854,-212.021c-56.829,-51.104 1.054,-134.492 4.083,-138.717c2.192,-3.046 3.763,-6.492 4.625,-10.146c0.858,-3.65 0.992,-7.435 0.392,-11.139c-0.604,-3.703 -1.929,-7.251 -3.904,-10.442c-1.971,-3.19 -4.554,-5.961 -7.596,-8.154c-3.046,-2.192 -6.487,-3.765 -10.142,-4.625c-3.646,-0.861 -7.433,-0.994 -11.133,-0.392c-3.704,0.602 -7.25,1.927 -10.442,3.901c-3.188,1.973 -5.958,4.556 -8.15,7.6c-31.9,44.276 -72.108,146.06 4.054,214.593c56.775,51.133 -1.4,132.175 -3.854,135.517c-4.504,6.092 -6.412,13.725 -5.296,21.225c1.112,7.496 5.154,14.221 11.237,18.742Zm189.138,-189.196c6.096,4.508 13.725,6.408 21.221,5.296c7.492,-1.112 14.242,-5.158 18.762,-11.238c32.071,-43.279 72.537,-143.292 -3.854,-212.02c-56.833,-51.105 1.054,-134.49 4.083,-138.718c4.425,-6.148 6.229,-13.803 5.012,-21.283c-1.217,-7.479 -5.35,-14.168 -11.496,-18.597c-6.146,-4.428 -13.8,-6.233 -21.275,-5.017c-7.479,1.216 -14.167,5.353 -18.592,11.502c-31.9,44.278 -72.108,146.059 4.054,214.591c56.829,51.104 -1.4,132.175 -3.854,135.521c-4.504,6.087 -6.412,13.725 -5.3,21.225c1.117,7.492 5.154,14.217 11.237,18.738Z" style="fill-rule:nonzero;"/><rect x="994.7" y="195.833" width="268.16" height="599.892" style="fill:none;"/></g></g></svg>